# xmcd
#
# Track frame offsets:
#	177
#	16287
#	31480
#	49752
#	67287
#	85497
#	102480
#	118935
#	139265
#	154262
#	175400
#
# Disc length: 2649 seconds
#
# Revision: 3
# Processed by: cddbd v1.5.2PL0 Copyright (c) Steve Scherf et al.
# Submitted via: audiograbber 1.83.01
#
DISCID=a30a570b
DTITLE=Sampler Soul - The cream of supreme
DYEAR=1987
DGENRE=Soul
TTITLE0=Princess - Say I'm your no. 1
TTITLE1=Princess - After the love has gone
TTITLE2=Three Degrees, The - The heaven I need
TTITLE3=Princess - Tell me tomorrow
TTITLE4=Boothe, Patrick - Easier said than done
TTITLE5=Mel and Kim - Showing out
TTITLE6=Exception - Jump with it
TTITLE7=Princess - I'll keep on loving you
TTITLE8=Mel and Kim - Respectable
TTITLE9=Mel and Kim - F.L.M.
TTITLE10=Princess - In the heat of a passionate moment (Garage mix)
EXTD=
EXTT0=
EXTT1=
EXTT2=
EXTT3=
EXTT4=
EXTT5=
EXTT6=
EXTT7=
EXTT8=
EXTT9=
EXTT10=
PLAYORDER=
